<?xml version="1.0" encoding="UTF-8"?>
<svg id="Capa_1" data-name="Capa 1" xmlns="http://www.w3.org/2000/svg" viewBox="0 0 850.95 477.92">
  <g>
    <path d="m2.18,477.59c-2.04-.99-2.64-2.53-1.82-4.63l41.46-96.97c.66-1.76,1.98-2.64,3.96-2.64h.5c1.82,0,3.14.88,3.96,2.64l41.3,96.97c.94,2.09.33,3.63-1.82,4.63-2.09.88-3.58.28-4.46-1.82l-11.65-27.42H18.61l-11.81,27.42c-.88,2.09-2.42,2.7-4.63,1.82Zm19.41-36.18h49.06l-24.37-57.16-24.7,57.16Z"/>
    <path d="m113.68,477.92c-2.31,0-3.47-1.16-3.47-3.47v-97.63c0-2.31,1.16-3.47,3.47-3.47h39.81c13.49,0,23.28,3.04,29.36,9.13,6.08,6.09,9.13,15.87,9.13,29.36v27.59c0,13.44-3.04,23.21-9.13,29.32-6.08,6.11-15.87,9.17-29.36,9.17h-39.81Zm3.47-6.94h36.34c7.65,0,13.79-1.03,18.42-3.1s7.97-5.41,10.04-10.04c2.06-4.63,3.1-10.77,3.1-18.42v-27.59c0-7.65-1.03-13.8-3.1-18.42-2.07-4.63-5.41-7.97-10.04-10.04-4.63-2.07-10.77-3.1-18.42-3.1h-36.34v90.69Z"/>
    <path d="m209,477.59c-2.04-.99-2.64-2.53-1.82-4.63l41.46-96.97c.66-1.76,1.98-2.64,3.96-2.64h.5c1.82,0,3.14.88,3.96,2.64l41.3,96.97c.94,2.09.33,3.63-1.82,4.63-2.09.88-3.58.28-4.46-1.82l-11.65-27.42h-55.01l-11.81,27.42c-.88,2.09-2.42,2.7-4.63,1.82Zm19.41-36.18h49.06l-24.37-57.16-24.7,57.16Z"/>
    <path d="m320.51,477.92c-2.31,0-3.47-1.16-3.47-3.47v-97.63c0-2.31,1.16-3.47,3.47-3.47,1.82,0,3.19.77,4.13,2.31l41.8,64.26-1.65.17,41.8-64.43c.94-1.54,2.31-2.31,4.13-2.31,2.2,0,3.3,1.16,3.3,3.47v97.63c0,2.31-1.16,3.47-3.47,3.47s-3.47-1.16-3.47-3.47v-90.69l1.98.66-39.32,60.46c-.94,1.54-2.31,2.31-4.13,2.31s-3.19-.77-4.13-2.31l-39.32-60.46,1.82.83v89.21c0,2.31-1.16,3.47-3.47,3.47Z"/>
    <path d="m434.33,477.59c-2.04-.99-2.64-2.53-1.82-4.63l41.46-96.97c.66-1.76,1.98-2.64,3.97-2.64h.5c1.82,0,3.14.88,3.96,2.64l41.3,96.97c.94,2.09.33,3.63-1.82,4.63-2.09.88-3.58.28-4.46-1.82l-11.65-27.42h-55.01l-11.81,27.42c-.88,2.09-2.42,2.7-4.63,1.82Zm19.41-36.18h49.06l-24.37-57.16-24.7,57.16Z"/>
    <path d="m545.84,477.92c-2.31,0-3.47-1.16-3.47-3.47v-97.63c0-2.31,1.16-3.47,3.47-3.47,1.27,0,2.48.66,3.64,1.98l71.2,91.35h-1.49v-89.87c0-2.31,1.16-3.47,3.47-3.47s3.47,1.16,3.47,3.47v97.63c0,2.31-1.16,3.47-3.47,3.47-1.27,0-2.48-.66-3.63-1.98l-71.2-91.35h1.49v89.87c0,2.31-1.16,3.47-3.47,3.47Z"/>
    <path d="m686.59,478.09c-.99,0-1.82-.33-2.48-.99s-.99-1.49-.99-2.48v-94.49h-36.18c-.99,0-1.82-.33-2.48-.99s-.99-1.49-.99-2.48.33-1.82.99-2.48,1.49-.99,2.48-.99h79.3c.99,0,1.82.33,2.48.99s.99,1.49.99,2.48-.33,1.82-.99,2.48-1.49.99-2.48.99h-36.18v94.49c0,.99-.33,1.82-.99,2.48s-1.49.99-2.48.99Z"/>
    <path d="m729.7,477.92c-2.75,0-4.13-1.43-4.13-4.29v-2.81c0-2.75,1.38-4.13,4.13-4.13h2.81c2.75,0,4.13,1.38,4.13,4.13v2.81c0,2.86-1.38,4.29-4.13,4.29h-2.81Z"/>
    <path d="m766.54,477.92c-2.31,0-3.47-1.16-3.47-3.47v-97.63c0-2.31,1.16-3.47,3.47-3.47h59.14c1.16,0,2.02.29,2.6.87s.87,1.45.87,2.6c0,2.31-1.16,3.47-3.47,3.47h-55.67v41.13h39.15c2.31,0,3.47,1.16,3.47,3.47s-1.16,3.47-3.47,3.47h-39.15v46.09c0,2.31-1.16,3.47-3.47,3.47Z"/>
    <path d="m847.49,477.92c-.99,0-1.82-.33-2.48-.99s-.99-1.49-.99-2.48v-97.8c0-.99.33-1.82.99-2.48s1.49-.99,2.48-.99,1.82.33,2.48.99c.66.66.99,1.49.99,2.48v97.8c0,.99-.33,1.82-.99,2.48-.66.66-1.49.99-2.48.99Z"/>
  </g>
  <g>
    <rect x="615.5" y="207.8" width="130.49" height="40.73" transform="translate(452.58 908.91) rotate(-90)"/>
    <g>
      <polygon points="574.04 293.41 524.54 293.41 495.91 252.68 404.17 122.19 404.15 122.19 375.54 81.46 375.51 81.46 367.74 70.38 343 105.57 239.56 252.68 446.41 252.68 475.05 293.41 161.43 293.41 318.24 70.38 343 35.19 367.74 0 396.37 40.73 417.23 70.38 425.01 81.46 425.03 81.46 453.64 122.19 453.67 122.19 574.04 293.41"/>
      <polygon points="701.11 0 701.11 40.73 445.86 40.73 417.22 0 701.11 0"/>
      <polygon points="650.38 81.46 650.38 122.19 503.13 122.19 474.5 81.46 650.38 81.46"/>
    </g>
  </g>
</svg>