<?xml version="1.0" encoding="UTF-8"?>
<svg id="Capa_1" data-name="Capa 1" xmlns="http://www.w3.org/2000/svg" viewBox="0 0 1652.99 255.38">
  <defs>
    <style>
      .cls-1 {
        fill: #fff;
      }
    </style>
  </defs>
  <g>
    <path class="cls-1" d="m582.14,190.48c-2.57-1.25-3.34-3.2-2.29-5.84l52.31-122.34c.84-2.22,2.5-3.34,5.01-3.34h.62c2.29,0,3.96,1.11,5,3.34l52.1,122.34c1.18,2.64.42,4.58-2.29,5.84-2.64,1.11-4.51.35-5.62-2.29l-14.7-34.6h-69.4l-14.9,34.6c-1.11,2.64-3.06,3.4-5.84,2.29Zm24.49-45.65h61.9l-30.74-72.11-31.16,72.11Z"/>
    <path class="cls-1" d="m722.82,190.89c-2.92,0-4.38-1.46-4.38-4.38V63.34c0-2.92,1.46-4.38,4.38-4.38h50.23c17.02,0,29.37,3.84,37.04,11.52,7.68,7.68,11.52,20.03,11.52,37.05v34.81c0,16.95-3.84,29.28-11.52,36.99-7.68,7.71-20.03,11.57-37.04,11.57h-50.23Zm4.37-8.75h45.86c9.65,0,17.4-1.3,23.24-3.91,5.83-2.61,10.06-6.83,12.66-12.66,2.61-5.83,3.91-13.58,3.91-23.24v-34.81c0-9.66-1.3-17.4-3.91-23.24-2.61-5.84-6.83-10.06-12.66-12.66-5.84-2.61-13.58-3.91-23.24-3.91h-45.86v114.42Z"/>
    <path class="cls-1" d="m843.08,190.48c-2.57-1.25-3.34-3.2-2.29-5.84l52.31-122.34c.83-2.22,2.5-3.34,5-3.34h.62c2.29,0,3.96,1.11,5.01,3.34l52.1,122.34c1.18,2.64.41,4.58-2.29,5.84-2.64,1.11-4.52.35-5.63-2.29l-14.69-34.6h-69.41l-14.9,34.6c-1.11,2.64-3.06,3.4-5.83,2.29Zm24.49-45.65h61.9l-30.75-72.11-31.16,72.11Z"/>
    <path class="cls-1" d="m983.76,190.89c-2.92,0-4.38-1.46-4.38-4.38V63.34c0-2.92,1.46-4.38,4.38-4.38,2.29,0,4.03.97,5.21,2.92l52.73,81.08-2.08.21,52.73-81.28c1.18-1.94,2.92-2.92,5.21-2.92,2.78,0,4.17,1.46,4.17,4.38v123.18c0,2.92-1.46,4.38-4.38,4.38s-4.37-1.46-4.37-4.38v-114.42l2.5.83-49.6,76.28c-1.18,1.94-2.92,2.92-5.21,2.92s-4.03-.97-5.21-2.92l-49.61-76.28,2.29,1.04v112.55c0,2.92-1.46,4.38-4.38,4.38Z"/>
    <path class="cls-1" d="m1127.37,190.48c-2.57-1.25-3.34-3.2-2.29-5.84l52.31-122.34c.83-2.22,2.5-3.34,5-3.34h.62c2.29,0,3.96,1.11,5.01,3.34l52.1,122.34c1.18,2.64.41,4.58-2.29,5.84-2.64,1.11-4.52.35-5.63-2.29l-14.69-34.6h-69.41l-14.9,34.6c-1.11,2.64-3.06,3.4-5.83,2.29Zm24.49-45.65h61.9l-30.75-72.11-31.16,72.11Z"/>
    <path class="cls-1" d="m1268.05,190.89c-2.92,0-4.38-1.46-4.38-4.38V63.34c0-2.92,1.46-4.38,4.38-4.38,1.6,0,3.13.83,4.58,2.5l89.83,115.26h-1.87V63.34c0-2.92,1.46-4.38,4.38-4.38s4.38,1.46,4.38,4.38v123.18c0,2.92-1.46,4.38-4.38,4.38-1.6,0-3.13-.83-4.59-2.5l-89.83-115.26h1.87v113.38c0,2.92-1.46,4.38-4.37,4.38Z"/>
    <path class="cls-1" d="m1445.62,191.1c-1.25,0-2.29-.42-3.13-1.25s-1.25-1.87-1.25-3.13v-119.22h-45.64c-1.25,0-2.29-.42-3.13-1.25-.83-.83-1.25-1.88-1.25-3.13s.42-2.29,1.25-3.13c.83-.83,1.87-1.25,3.13-1.25h100.04c1.25,0,2.29.42,3.13,1.25.84.83,1.25,1.88,1.25,3.13s-.41,2.29-1.25,3.13c-.83.83-1.87,1.25-3.13,1.25h-45.64v119.22c0,1.25-.42,2.29-1.25,3.13s-1.87,1.25-3.13,1.25Z"/>
    <path class="cls-1" d="m1500.02,190.89c-3.48,0-5.21-1.81-5.21-5.42v-3.54c0-3.47,1.74-5.21,5.21-5.21h3.54c3.47,0,5.21,1.74,5.21,5.21v3.54c0,3.61-1.74,5.42-5.21,5.42h-3.54Z"/>
    <path class="cls-1" d="m1546.49,190.89c-2.92,0-4.38-1.46-4.38-4.38V63.34c0-2.92,1.46-4.38,4.38-4.38h74.62c1.46,0,2.55.37,3.28,1.1.73.73,1.1,1.82,1.1,3.28,0,2.92-1.46,4.38-4.38,4.38h-70.24v51.9h49.4c2.92,0,4.37,1.46,4.37,4.38s-1.46,4.38-4.37,4.38h-49.4v58.15c0,2.92-1.46,4.38-4.38,4.38Z"/>
    <path class="cls-1" d="m1648.62,190.89c-1.25,0-2.29-.42-3.13-1.25-.84-.83-1.25-1.87-1.25-3.13V63.13c0-1.25.41-2.29,1.25-3.13.83-.83,1.87-1.25,3.13-1.25s2.29.42,3.13,1.25c.83.83,1.25,1.88,1.25,3.13v123.38c0,1.25-.41,2.29-1.25,3.13-.84.83-1.88,1.25-3.13,1.25Z"/>
  </g>
  <g>
    <rect class="cls-1" x="395.22" y="180.86" width="113.57" height="35.45" transform="translate(253.41 650.59) rotate(-90)"/>
    <g>
      <polygon class="cls-1" points="359.13 255.38 316.05 255.38 291.12 219.93 211.28 106.35 211.26 106.35 186.35 70.9 186.33 70.9 179.56 61.26 158.03 91.89 68 219.93 248.04 219.93 272.97 255.38 0 255.38 136.48 61.26 158.03 30.63 179.56 0 204.49 35.45 222.64 61.26 229.41 70.9 229.43 70.9 254.34 106.35 254.36 106.35 359.13 255.38"/>
      <polygon class="cls-1" points="469.73 0 469.73 35.45 247.56 35.45 222.64 0 469.73 0"/>
      <polygon class="cls-1" points="425.57 70.9 425.57 106.35 297.41 106.35 272.49 70.9 425.57 70.9"/>
    </g>
  </g>
</svg>